solid bedWall
facet normal -0.19241434 0 -0.98131377
 outer loop
  vertex 8.800001 1 2.220446e-16
  vertex 8.800001 4.5519144e-14 2.220446e-16
  vertex 8.500001 1 0.05882353
 endloop
endfacet
facet normal -0.19241434 0 -0.98131377
 outer loop
  vertex 8.500001 1 0.05882353
  vertex 8.800001 4.5519144e-14 2.220446e-16
  vertex 8.500001 4.5519144e-14 0.05882353
 endloop
endfacet
facet normal -0.19241445 0 -0.9813137
 outer loop
  vertex 8.500001 1 0.05882353
  vertex 8.500001 4.5519144e-14 0.05882353
  vertex 3.700001 0.7032727 1
 endloop
endfacet
facet normal -0.19241446 0 -0.98131377
 outer loop
  vertex 3.700001 0.7032727 1
  vertex 8.500001 4.5519144e-14 0.05882353
  vertex 3.700001 0.29672727 1
 endloop
endfacet
facet normal 0 0 -1
 outer loop
  vertex 8.800001 1 2.220446e-16
  vertex 23.500002 1 2.220446e-16
  vertex 8.800001 4.5519144e-14 2.220446e-16
 endloop
endfacet
facet normal -0 0 -1
 outer loop
  vertex 8.800001 4.5519144e-14 2.220446e-16
  vertex 23.500002 1 2.220446e-16
  vertex 23.500002 4.5519144e-14 2.220446e-16
 endloop
endfacet
facet normal 0 0 -1
 outer loop
  vertex 3.700001 0.7032727 1
  vertex 3.700001 0.29672727 1
  vertex 3.000001 0.66 1
 endloop
endfacet
facet normal 0 0 -1
 outer loop
  vertex 3.000001 0.66 1
  vertex 3.700001 0.29672727 1
  vertex 3.000001 0.34 1
 endloop
endfacet
facet normal 0 0 -1
 outer loop
  vertex 3.000001 0.66 1
  vertex 3.000001 0.34 1
  vertex 1e-06 0.34 1
 endloop
endfacet
facet normal -0 -0 -1
 outer loop
  vertex 1e-06 0.34 1
  vertex 1e-06 0.66 1
  vertex 3.000001 0.66 1
 endloop
endfacet
facet normal 0 -1 0
 outer loop
  vertex 23.500002 4.5519144e-14 2.220446e-16
  vertex 8.500001 4.5519144e-14 0.05882353
  vertex 8.800001 4.5519144e-14 2.220446e-16
 endloop
endfacet
facet normal 0 1 -0
 outer loop
  vertex 8.500001 1 0.05882353
  vertex 23.500002 1 2.220446e-16
  vertex 8.800001 1 2.220446e-16
 endloop
endfacet
endsolid bedWall
