solid freeSurface
facet normal 0 0 1
 outer loop
  vertex 8.500001 4.5519144e-14 1.54
  vertex 23.500002 4.5519144e-14 1.54
  vertex 3.000001 0.34 1.54
 endloop
endfacet
facet normal 0 0 1
 outer loop
  vertex 3.000001 0.34 1.54
  vertex 23.500002 4.5519144e-14 1.54
  vertex 3.000001 0.66 1.54
 endloop
endfacet
facet normal -0 0 1
 outer loop
  vertex 3.000001 0.34 1.54
  vertex 3.000001 0.66 1.54
  vertex 1e-06 0.66 1.54
 endloop
endfacet
facet normal 0 -0 1
 outer loop
  vertex 23.500002 1 1.54
  vertex 8.500001 1 1.54
  vertex 23.500002 4.5519144e-14 1.54
 endloop
endfacet
facet normal -0 0 1
 outer loop
  vertex 23.500002 4.5519144e-14 1.54
  vertex 8.500001 1 1.54
  vertex 3.000001 0.66 1.54
 endloop
endfacet
facet normal 0 -0 1
 outer loop
  vertex 1e-06 0.66 1.54
  vertex 1e-06 0.34 1.54
  vertex 3.000001 0.34 1.54
 endloop
endfacet
endsolid freeSurface
