solid leftSide
facet normal 0 1 -0
 outer loop
  vertex 1e-06 0.66 1.54
  vertex 3.000001 0.66 1.54
  vertex 1e-06 0.66 1
 endloop
endfacet
facet normal 0 1 -0
 outer loop
  vertex 1e-06 0.66 1
  vertex 3.000001 0.66 1.54
  vertex 3.000001 0.66 1
 endloop
endfacet
facet normal 0 1 -0
 outer loop
  vertex 8.500001 1 1.54
  vertex 23.500002 1 1.54
  vertex 8.500001 1 0.05882353
 endloop
endfacet
facet normal 0 1 -0
 outer loop
  vertex 8.500001 1 0.05882353
  vertex 23.500002 1 1.54
  vertex 23.500002 1 2.220446e-16
 endloop
endfacet
facet normal -0.06170033 0.9980948 0
 outer loop
  vertex 3.000001 0.66 1
  vertex 3.000001 0.66 1.54
  vertex 3.700001 0.7032727 1
 endloop
endfacet
facet normal -0.061700396 0.9980947 -9.514567e-08
 outer loop
  vertex 3.700001 0.7032727 1
  vertex 3.000001 0.66 1.54
  vertex 8.500001 1 1.54
 endloop
endfacet
facet normal -0.061700404 0.99809474 0
 outer loop
  vertex 3.700001 0.7032727 1
  vertex 8.500001 1 1.54
  vertex 8.500001 1 0.05882353
 endloop
endfacet
endsolid leftSide
