solid rightSide
facet normal -0.0617004 -0.99809474 -0
 outer loop
  vertex 8.500001 4.5519144e-14 0.05882353
  vertex 8.500001 4.5519144e-14 1.54
  vertex 3.700001 0.29672727 1
 endloop
endfacet
facet normal -0.0617004 -0.9980947 4.0061334e-08
 outer loop
  vertex 3.700001 0.29672727 1
  vertex 8.500001 4.5519144e-14 1.54
  vertex 3.000001 0.34 1.54
 endloop
endfacet
facet normal -0.06170041 -0.9980948 0
 outer loop
  vertex 3.700001 0.29672727 1
  vertex 3.000001 0.34 1.54
  vertex 3.000001 0.34 1
 endloop
endfacet
facet normal 0 -1 0
 outer loop
  vertex 3.000001 0.34 1.54
  vertex 1e-06 0.34 1.54
  vertex 3.000001 0.34 1
 endloop
endfacet
facet normal 0 -1 0
 outer loop
  vertex 3.000001 0.34 1
  vertex 1e-06 0.34 1.54
  vertex 1e-06 0.34 1
 endloop
endfacet
facet normal -0 -1 0
 outer loop
  vertex 8.500001 4.5519144e-14 1.54
  vertex 8.500001 4.5519144e-14 0.05882353
  vertex 23.500002 4.5519144e-14 1.54
 endloop
endfacet
facet normal 0 -1 0
 outer loop
  vertex 23.500002 4.5519144e-14 1.54
  vertex 8.500001 4.5519144e-14 0.05882353
  vertex 23.500002 4.5519144e-14 2.220446e-16
 endloop
endfacet
endsolid rightSide
